<?xml version="1.0" encoding="utf-8"?>
<!-- Generated by IcoMoon.io -->
<!DOCTYPE svg PUBLIC "-//W3C//DTD SVG 1.1//EN" "http://www.w3.org/Graphics/SVG/1.1/DTD/svg11.dtd">
<svg version="1.1" xmlns="http://www.w3.org/2000/svg" xmlns:xlink="http://www.w3.org/1999/xlink" width="47" height="42" viewBox="0 0 47 42">
<path fill="#ffffff" d="M19.688 0v0c10.873 0 19.688 7.133 19.688 15.932s-8.814 15.932-19.688 15.932c-1.044 0-2.069-0.066-3.069-0.193-4.229 4.212-9.113 4.967-13.993 5.078v-1.031c2.635-1.286 4.758-3.628 4.758-6.305 0-0.373-0.029-0.74-0.083-1.099-4.453-2.921-7.3-7.382-7.3-12.382 0-8.799 8.814-15.932 19.688-15.932zM40.852 35.712c0 2.294 1.489 4.302 3.773 5.405v0.884c-4.23-0.095-8.112-0.742-11.777-4.353-0.867 0.109-1.755 0.166-2.66 0.166-3.916 0-7.523-1.056-10.402-2.832 5.934-0.021 11.536-1.922 15.784-5.36 2.141-1.733 3.831-3.766 5.021-6.044 1.262-2.414 1.902-4.987 1.902-7.646 0-0.429-0.018-0.855-0.052-1.278 2.977 2.458 4.809 5.809 4.809 9.502 0 4.286-2.467 8.11-6.326 10.613-0.047 0.307-0.072 0.622-0.072 0.942z"></path>
</svg>
