<?xml version="1.0" encoding="utf-8"?>
<!-- Generated by IcoMoon.io -->
<!DOCTYPE svg PUBLIC "-//W3C//DTD SVG 1.1//EN" "http://www.w3.org/Graphics/SVG/1.1/DTD/svg11.dtd">
<svg version="1.1" xmlns="http://www.w3.org/2000/svg" xmlns:xlink="http://www.w3.org/1999/xlink" width="42" height="42" viewBox="0 0 42 42">
<path fill="#c1c4c9" d="M30.131 31.183c-0.985 0.985-2.581 0.985-3.564 0l-5.567-6.363-5.567 6.361c-0.985 0.985-2.581 0.985-3.564 0-0.985-0.985-0.985-2.581 0-3.564l5.792-6.615-5.794-6.619c-0.985-0.985-0.985-2.579 0-3.564s2.579-0.985 3.564 0l5.569 6.365 5.567-6.365c0.985-0.985 2.579-0.985 3.564 0s0.985 2.581 0 3.564l-5.792 6.619 5.792 6.615c0.985 0.985 0.985 2.581 0 3.566z"></path>
</svg>
