<?xml version="1.0" encoding="utf-8"?>
<!-- Generated by IcoMoon.io -->
<!DOCTYPE svg PUBLIC "-//W3C//DTD SVG 1.1//EN" "http://www.w3.org/Graphics/SVG/1.1/DTD/svg11.dtd">
<svg version="1.1" xmlns="http://www.w3.org/2000/svg" xmlns:xlink="http://www.w3.org/1999/xlink" width="42" height="42" viewBox="0 0 42 42">
<path fill="#ffffff" d="M34.44 18.9h-26.88c-1.159 0-1.26 0.939-1.26 2.1s0.101 2.1 1.26 2.1h26.88c1.159 0 1.26-0.939 1.26-2.1s-0.101-2.1-1.26-2.1zM34.44 27.3h-26.88c-1.159 0-1.26 0.939-1.26 2.1s0.101 2.1 1.26 2.1h26.88c1.159 0 1.26-0.939 1.26-2.1s-0.101-2.1-1.26-2.1zM7.56 14.7h26.88c1.159 0 1.26-0.939 1.26-2.1s-0.101-2.1-1.26-2.1h-26.88c-1.159 0-1.26 0.939-1.26 2.1s0.101 2.1 1.26 2.1z"></path>
</svg>
